<?xml version="1.0" encoding="UTF-8"?>
<svg id="Calque_1" data-name="Calque 1" xmlns="http://www.w3.org/2000/svg" viewBox="0 0 557.13 260.59">
  <defs>
    <style>
      .cls-1 {
        fill: #fff7e6;
      }
    </style>
  </defs>
  <path class="cls-1" d="M416.42,107.14c1.47.74,3.87,1.46,4.79,2.85.93,1.45,1.21,3.47,1.6,5.12.03.12.14.19.25.23.06,0,.16-.02.23-.09.02-.02.04-.03.05-.07l.15-.3c.47-1.42,1.16-2.99,2.25-4.04.05-.05.09-.09.13-.14.49-.46,1.1-.81,1.8-.99l3.62-.93s.1-.03.13-.07c.02-.02.05-.05.07-.07,0-.02.02-.04.03-.06v-.02s.03-.04.03-.04c0-.04-.01-.08,0-.12,0-.1-.08-.19-.17-.24l-3.33-1.68s-.02,0-.02-.02c-1.05-.53-1.82-1.51-2.13-2.66l-.91-3.62c-.05-.12-.14-.19-.23-.22-.08.01-.18.02-.25.09-.02.02-.05.05-.05.07l-.17.32-1.5,3.01c-.2.39-.46.74-.75,1.05-.04.03-.07.07-.11.11-.49.48-1.1.81-1.8.99l-3.62.93s-.1.05-.13.07c-.04.03-.07.09-.09.13-.03.06-.03.12-.02.18,0,.1.08.19.17.24Z"/>
  <path class="cls-1" d="M537.6,152.36c-6.98.18-13.97.36-20.95.53-2.68.07-5.36.14-8.04.2-1.49-.06-2.97-.12-4.46-.18l-1.73-.07c-3.67-.15-7.26-.11-10.56-1.97-3.39-1.9-5.2-5.31-5.61-9.1-.49-4.51,2.3-10.71,2.01-13.69-.36-3.66-5.61-2.82-6.55.35-9.31-8.03-23.87-3.09-30.97,5.47-2.08,2.51-4.87,6.62-4.95,9.95-.05,1.91-.1,3.83.23,5.71,1.34,7.64,9.09,11.2,16.13,9.63,7.1-1.58,13.73-6.57,18.21-12.18,4.39,10.12,13.77,12.44,23.83,11.76.46-.01.93,0,1.39,0,3.56-.09,7.12-.18,10.68-.27,7.12-.18,14.24-.36,21.36-.54,1.51-.04,2.8-1.26,2.8-2.8s-1.28-2.84-2.8-2.8ZM453.52,151.12c-5.56-7.76,5.43-19.13,13.23-20.47,3.27-.56,11.82.72,11.75,4.86-.14,8.32-18.95,24.02-24.98,15.61Z"/>
  <path class="cls-1" d="M436.56,150.72c-1.81.02-3.61-.43-5.15-1.4-3.97-2.5-5.47-7.55-6.08-11.93-.54-3.86.07-10.3-1.46-13.85-.4-.93-1.16-1.18-2.08-1.29l-2.13.69c-1.26,2.75-1.53,5.8-2.65,8.61-8.2,20.56-34.54,31.67-42.59,4.83,12.99-17.13,19.43-43.75,17.33-65.1-.66-6.72-3.53-18.55-12.25-18.01-10.87.67-15.49,19.59-16.95,28.35-2.63,15.8-1.5,32.13,2.56,47.59.34,1.31.71,2.61,1.1,3.91.46,1.55-2.93,3.87-5.35,5.19-1.14.62-1.65,1.97-1.2,3.18.55,1.48,2.27,2.13,3.66,1.38,2.45-1.32,5.74-3.05,5.85-2.73,8.83,25.82,36.5,21.22,49.63,1.91,1.49-.28.8.37,1.11.96.91,1.78,1.4,4.06,2.42,5.9.41.74.87,1.46,1.37,2.14,1.3,1.75,2.95,3.24,4.89,4.26,1.85.97,3.92,1.48,6,1.59,1.11.06,2.22.01,3.32-.11,1.21-.14,1.76-1.23,1.92-2.34.15-1.01-.07-2.08-.61-2.94-.75-1.21-1.42-.81-2.65-.79ZM371.29,127.47c-4.19-11.15-4.02-35.49-1.79-47.24.94-4.93,3.16-13.18,5.97-17.25,6.3-9.12,9.54,2.42,10.11,8.37,1.82,19.01-3.84,40.46-12.83,57.04-1.64.24-1.09.04-1.46-.92Z"/>
  <path class="cls-1" d="M349.65,138.47c-6.41-4.6-22-6-28.99-3.48-5.1,1.84-11.91,15.43-9.91,20.92-1.35-.34-2.67-.79-3.92-1.42-1.88-.94-3.56-2.25-4.87-3.9-.33-.42-.64-.86-.92-1.31-3.27-5.3-3.01-22.28-9.82-23.47-9.85-1.72-19.78,13.83-25.26,20.19-.4.46.06,1.33-1.56.91-1.24-4.22,1.46-21.47-.35-23.8-3.54-4.53-5.07,5.24-5.35,7.12-.81,5.42-1.39,24.31,1.47,28.41.4.57.78,1.1,1.49,1.31,4.88,1.15,14.35-17.6,18.16-21.5,1.5-1.54,7.55-6.37,9.43-6.45,2.61,4.89,2.46,10.71,4.28,15.93.77,2.2,1.8,4.32,3.16,6.22,1.18,1.64,2.6,3.1,4.24,4.28,1.55,1.12,3.28,1.98,5.09,2.58,1.84.62,3.77.98,5.7,1.16,1.79.16,3.59.16,5.38.05,8.95,4.09,23.62.93,30.58-2.3,9.05-4.2,10.3-15.45,1.96-21.45ZM347.57,153.81c-5.45,5.15-31.45,7.54-31.19-4.91.37-17.33,34.71-11.17,33.63.29-.06.66-1.9,4.11-2.44,4.62Z"/>
  <path class="cls-1" d="M124.08,70.36c-9.09,4.1-17.13,11.78-23.18,19.54-5.86,7.5-10.06,15.93-12.55,24.89-3.23-9.54-8.63-18.39-15.32-25.95-5.23-5.91-27.84-28.2-34.15-14.31-9.89,21.77-9.2,48.25-7.56,71.64.64,9.1,1.37,18.61,3.74,27.46,1,3.73,6.79,2.15,5.79-1.6-1.41-5.27-2.07-10.81-2.66-16.22-1.69-15.37-2.28-31.13-1.11-46.55.73-9.65,2.11-19.9,5.96-28.89.44-1.02,1.17-3.06,2.1-3.68,1.96-1.3,7.12,2.5,9.13,3.78,3.3,2.1,6.37,4.51,9.23,7.17,12.74,11.81,22.01,28.47,22.18,46.11.04,3.86,5.96,3.87,6,0,.25-22.77,12.35-44.72,32.11-56.4,1.62-.96,3.36-2.6,4.75-.57.39.56.43,1.83.58,2.48,1.15,5.13,2.11,10.31,2.9,15.51,2.19,14.36,2.17,28.57,1.12,43.02-.7,9.63-1.65,19.26-2.89,28.84-.49,3.82,5.51,3.78,6,0,3.39-26.19,5.31-52.33.73-78.5-1.19-6.8-2-22.68-12.88-17.77Z"/>
  <path class="cls-1" d="M246.4,146.95c-2.06.94-4.37,1.96-6.83,3.03-.78.34-1.59.7-2.39,1.05-.36-5.18-.87-10.33-1.57-15.47-.02-.66-.07-1.32-.16-1.97,1.24-.78,1.99-2.32,1.02-3.94-4.59-7.7-14.54-10.89-22.82-7.39-8.45,3.58-12.8,13.53-11.12,22.32.56,2.93,1.76,5.32,3.38,7.18-11.63.52-19.65-.53-25.22-13.6-.67-1.57-1.08-3.37-1.51-5.2-.61-2.69-1.25-5.46-2.8-7.79-.44-.65-5.92-5.72-7.07-6.12-5.5-1.89-10.61-.89-14.76,2.89-6.37,5.8-9.57,17.8-7.27,27.31.93,3.85,3.59,6.83,7.13,7.96,4.6,1.47,9.99-.18,15.18-4.66,2.82-2.43,5.12-7.29,6.32-10.22,6.98,17.1,22.83,16.78,40.22,13.99,2.72.03,5.59-.64,8.36-2.09,2.18-1.14,4.11-2.66,5.73-4.43.13,1.47.26,2.87.37,4.19-13.02,5.99-27.11,13.68-31.88,23.68-4.69,9.83-8.38,41.78,10.75,58.92,3.12,2.79,8.83,5.14,13.72,5.14,1.05,0,2.06-.11,3-.34,14-3.51,14.15-21.75,13.86-27.26-.59-11.23-.98-19.43-1.29-26.03-.61-12.83-.93-19.53-1.83-30.38,1.74-.77,3.44-1.52,5.06-2.23,2.48-1.08,4.82-2.11,6.92-3.08,1.51-.69,2.17-2.47,1.47-3.98-.69-1.51-2.47-2.17-3.98-1.47ZM164.13,148.58c-2.76,2.61-5.71,3.78-7.9,3.11-1.93-.59-3.35-2.66-4.09-5.99-.75-3.33.93-13.04,5.79-18.26,2.02-2.17,4.32-3.27,6.82-3.27.45,0,.92.04,1.39.11,2.28.35,4.87,3.25,6.06,5.12,1.91,3-1.8,13.22-8.07,19.18ZM223.35,147.86c-2.38,1.7-5.42,2.84-8.39,2.54-4.75-.49-6.66-4.98-6.8-9.23-.19-5.51,2.86-11.59,8.23-13.59,4.62-1.72,9.89-.47,13.23,2.95-.38.6-.57,1.35-.43,2.22.17,1.08.31,2.16.46,3.25.07,4.67-2.38,9.07-6.3,11.87ZM224.71,235.56c-3.13.78-8.81-1.24-11.27-3.44-16.55-14.82-13.35-43.47-9.34-51.86,3.74-7.83,15.49-14.49,27-19.9.76,9.56,1.07,16.14,1.64,28.02.31,6.6.71,14.82,1.29,26.06.23,4.35.23,18.73-9.33,21.13Z"/>
</svg>