<?xml version="1.0" encoding="UTF-8"?>
<svg width="118px" height="112px" viewBox="0 0 118 112" version="1.1" xmlns="http://www.w3.org/2000/svg" xmlns:xlink="http://www.w3.org/1999/xlink">
    <!-- Generator: Sketch 43.2 (39069) - http://www.bohemiancoding.com/sketch -->
    <title>Artboard</title>
    <desc>Created with Sketch.</desc>
    <defs></defs>
    <g id="Page-1" stroke="none" stroke-width="1" fill="none" fill-rule="evenodd">
        <g id="Artboard" fill-rule="nonzero" fill="#34507A">
            <g id="Group" transform="translate(2.000000, -15.000000)">
                <g id="Magnolia_bleu">
                    <path d="M94.08,17.36 C84.99,21.46 76.95,29.14 70.9,36.9 C65.04,44.4 60.84,52.83 58.35,61.79 C55.12,52.25 49.72,43.4 43.03,35.84 C37.8,29.93 15.19,7.64 8.88,21.53 C-1.01,43.3 -0.32,69.78 1.32,93.17 C1.96,102.27 2.69,111.78 5.06,120.63 C6.06,124.36 11.85,122.78 10.85,119.03 C9.44,113.76 8.78,108.22 8.19,102.81 C6.5,87.44 5.91,71.68 7.08,56.26 C7.81,46.61 9.19,36.36 13.04,27.37 C13.48,26.35 14.21,24.31 15.14,23.69 C17.1,22.39 22.26,26.19 24.27,27.47 C27.57,29.57 30.64,31.98 33.5,34.64 C46.24,46.45 55.51,63.11 55.68,80.75 C55.72,84.61 61.64,84.62 61.68,80.75 C61.93,57.98 74.03,36.03 93.79,24.35 C95.41,23.39 97.15,21.75 98.54,23.78 C98.93,24.34 98.97,25.61 99.12,26.26 C100.27,31.39 101.23,36.57 102.02,41.77 C104.21,56.13 104.19,70.34 103.14,84.79 C102.44,94.42 101.49,104.05 100.25,113.63 C99.76,117.45 105.76,117.41 106.25,113.63 C109.64,87.44 111.56,61.3 106.98,35.13 C105.79,28.33 104.98,12.45 94.1,17.36 L94.08,17.36 Z" id="Shape"></path>
                </g>
            </g>
        </g>
    </g>
</svg>