<?xml version="1.0" encoding="UTF-8"?>
<svg width="523px" height="206px" viewBox="0 0 523 206" version="1.1" xmlns="http://www.w3.org/2000/svg" xmlns:xlink="http://www.w3.org/1999/xlink">
    <!-- Generator: Sketch 43.2 (39069) - http://www.bohemiancoding.com/sketch -->
    <title>Artboard</title>
    <desc>Created with Sketch.</desc>
    <defs></defs>
    <g id="Page-1" stroke="none" stroke-width="1" fill="none" fill-rule="evenodd">
        <g id="Artboard">
            <g id="Group" transform="translate(2.000000, 9.000000)">
                <g id="Magnolia_bleu" fill-rule="nonzero" fill="#34507A">
                    <path d="M386.42,54.14 C387.89,54.88 390.29,55.6 391.21,56.99 C392.14,58.44 392.42,60.46 392.81,62.11 C392.84,62.23 392.95,62.3 393.06,62.34 C393.12,62.34 393.22,62.32 393.29,62.25 C393.31,62.23 393.33,62.22 393.34,62.18 L393.49,61.88 C393.96,60.46 394.65,58.89 395.74,57.84 C395.79,57.79 395.83,57.75 395.87,57.7 C396.36,57.24 396.97,56.89 397.67,56.71 L401.29,55.78 C401.29,55.78 401.39,55.75 401.42,55.71 C401.44,55.69 401.47,55.66 401.49,55.64 C401.49,55.62 401.51,55.6 401.52,55.58 L401.52,55.56 L401.55,55.52 C401.55,55.48 401.54,55.44 401.55,55.4 C401.55,55.3 401.47,55.21 401.38,55.16 L398.05,53.48 C398.05,53.48 398.03,53.48 398.03,53.46 C396.98,52.93 396.21,51.95 395.9,50.8 L394.99,47.18 C394.94,47.06 394.85,46.99 394.76,46.96 C394.68,46.97 394.58,46.98 394.51,47.05 C394.49,47.07 394.46,47.1 394.46,47.12 L394.29,47.44 L392.79,50.45 C392.59,50.84 392.33,51.19 392.04,51.5 C392,51.53 391.97,51.57 391.93,51.61 C391.44,52.09 390.83,52.42 390.13,52.6 L386.51,53.53 C386.51,53.53 386.41,53.58 386.38,53.6 C386.34,53.63 386.31,53.69 386.29,53.73 C386.26,53.79 386.26,53.85 386.27,53.91 C386.27,54.01 386.35,54.1 386.44,54.15 L386.42,54.14 Z" id="Shape"></path>
                    <path d="M507.6,99.36 C500.62,99.54 493.63,99.72 486.65,99.89 C483.97,99.96 481.29,100.03 478.61,100.09 C477.12,100.03 475.64,99.97 474.15,99.91 L472.42,99.84 C468.75,99.69 465.16,99.73 461.86,97.87 C458.47,95.97 456.66,92.56 456.25,88.77 C455.76,84.26 458.55,78.06 458.26,75.08 C457.9,71.42 452.65,72.26 451.71,75.43 C442.4,67.4 427.84,72.34 420.74,80.9 C418.66,83.41 415.87,87.52 415.79,90.85 C415.74,92.76 415.69,94.68 416.02,96.56 C417.36,104.2 425.11,107.76 432.15,106.19 C439.25,104.61 445.88,99.62 450.36,94.01 C454.75,104.13 464.13,106.45 474.19,105.77 C474.65,105.76 475.12,105.77 475.58,105.77 C479.14,105.68 482.7,105.59 486.26,105.5 C493.38,105.32 500.5,105.14 507.62,104.96 C509.13,104.92 510.42,103.7 510.42,102.16 C510.42,100.62 509.14,99.32 507.62,99.36 L507.6,99.36 Z M423.52,98.12 C417.96,90.36 428.95,78.99 436.75,77.65 C440.02,77.09 448.57,78.37 448.5,82.51 C448.36,90.83 429.55,106.53 423.52,98.12 Z" id="Shape"></path>
                    <path d="M406.56,97.72 C404.75,97.74 402.95,97.29 401.41,96.32 C397.44,93.82 395.94,88.77 395.33,84.39 C394.79,80.53 395.4,74.09 393.87,70.54 C393.47,69.61 392.71,69.36 391.79,69.25 L389.66,69.94 C388.4,72.69 388.13,75.74 387.01,78.55 C378.81,99.11 352.47,110.22 344.42,83.38 C357.41,66.25 363.85,39.63 361.75,18.28 C361.09,11.56 358.22,-0.27 349.5,0.27 C338.63,0.94 334.01,19.86 332.55,28.62 C329.92,44.42 331.05,60.75 335.11,76.21 C335.45,77.52 335.82,78.82 336.21,80.12 C336.67,81.67 333.28,83.99 330.86,85.31 C329.72,85.93 329.21,87.28 329.66,88.49 C330.21,89.97 331.93,90.62 333.32,89.87 C335.77,88.55 339.06,86.82 339.17,87.14 C348,112.96 375.67,108.36 388.8,89.05 C390.29,88.77 389.6,89.42 389.91,90.01 C390.82,91.79 391.31,94.07 392.33,95.91 C392.74,96.65 393.2,97.37 393.7,98.05 C395,99.8 396.65,101.29 398.59,102.31 C400.44,103.28 402.51,103.79 404.59,103.9 C405.7,103.96 406.81,103.91 407.91,103.79 C409.12,103.65 409.67,102.56 409.83,101.45 C409.98,100.44 409.76,99.37 409.22,98.51 C408.47,97.3 407.8,97.7 406.57,97.72 L406.56,97.72 Z M341.29,74.47 C337.1,63.32 337.27,38.98 339.5,27.23 C340.44,22.3 342.66,14.05 345.47,9.98 C351.77,0.86 355.01,12.4 355.58,18.35 C357.4,37.36 351.74,58.81 342.75,75.39 C341.11,75.63 341.66,75.43 341.29,74.47 L341.29,74.47 Z" id="Shape"></path>
                    <path d="M319.65,85.47 C313.24,80.87 297.65,79.47 290.66,81.99 C285.56,83.83 278.75,97.42 280.75,102.91 C279.4,102.57 278.08,102.12 276.83,101.49 C274.95,100.55 273.27,99.24 271.96,97.59 C271.63,97.17 271.32,96.73 271.04,96.28 C267.77,90.98 268.03,74 261.22,72.81 C251.37,71.09 241.44,86.64 235.96,93 C235.56,93.46 236.02,94.33 234.4,93.91 C233.16,89.69 235.86,72.44 234.05,70.11 C230.51,65.58 228.98,75.35 228.7,77.23 C227.89,82.65 227.31,101.54 230.17,105.64 C230.57,106.21 230.95,106.74 231.66,106.95 C236.54,108.1 246.01,89.35 249.82,85.45 C251.32,83.91 257.37,79.08 259.25,79 C261.86,83.89 261.71,89.71 263.53,94.93 C264.3,97.13 265.33,99.25 266.69,101.15 C267.87,102.79 269.29,104.25 270.93,105.43 C272.48,106.55 274.21,107.41 276.02,108.01 C277.86,108.63 279.79,108.99 281.72,109.17 C283.51,109.33 285.31,109.33 287.1,109.22 C296.05,113.31 310.72,110.15 317.68,106.92 C326.73,102.72 327.98,91.47 319.64,85.47 L319.65,85.47 Z M317.57,100.81 C312.12,105.96 286.12,108.35 286.38,95.9 C286.75,78.57 321.09,84.73 320.01,96.19 C319.95,96.85 318.11,100.3 317.57,100.81 Z" id="Shape"></path>
                    <path d="M94.08,17.36 C84.99,21.46 76.95,29.14 70.9,36.9 C65.04,44.4 60.84,52.83 58.35,61.79 C55.12,52.25 49.72,43.4 43.03,35.84 C37.8,29.93 15.19,7.64 8.88,21.53 C-1.01,43.3 -0.32,69.78 1.32,93.17 C1.96,102.27 2.69,111.78 5.06,120.63 C6.06,124.36 11.85,122.78 10.85,119.03 C9.44,113.76 8.78,108.22 8.19,102.81 C6.5,87.44 5.91,71.68 7.08,56.26 C7.81,46.61 9.19,36.36 13.04,27.37 C13.48,26.35 14.21,24.31 15.14,23.69 C17.1,22.39 22.26,26.19 24.27,27.47 C27.57,29.57 30.64,31.98 33.5,34.64 C46.24,46.45 55.51,63.11 55.68,80.75 C55.72,84.61 61.64,84.62 61.68,80.75 C61.93,57.98 74.03,36.03 93.79,24.35 C95.41,23.39 97.15,21.75 98.54,23.78 C98.93,24.34 98.97,25.61 99.12,26.26 C100.27,31.39 101.23,36.57 102.02,41.77 C104.21,56.13 104.19,70.34 103.14,84.79 C102.44,94.42 101.49,104.05 100.25,113.63 C99.76,117.45 105.76,117.41 106.25,113.63 C109.64,87.44 111.56,61.3 106.98,35.13 C105.79,28.33 104.98,12.45 94.1,17.36 L94.08,17.36 Z" id="Shape"></path>
                    <path d="M216.4,93.95 C214.34,94.89 212.03,95.91 209.57,96.98 C208.79,97.32 207.98,97.68 207.18,98.03 C206.82,92.85 206.31,87.7 205.61,82.56 C205.59,81.9 205.54,81.24 205.45,80.59 C206.69,79.81 207.44,78.27 206.47,76.65 C201.88,68.95 191.93,65.76 183.65,69.26 C175.2,72.84 170.85,82.79 172.53,91.58 C173.09,94.51 174.29,96.9 175.91,98.76 C164.28,99.28 156.26,98.23 150.69,85.16 C150.02,83.59 149.61,81.79 149.18,79.96 C148.57,77.27 147.93,74.5 146.38,72.17 C145.94,71.52 140.46,66.45 139.31,66.05 C133.81,64.16 128.7,65.16 124.55,68.94 C118.18,74.74 114.98,86.74 117.28,96.25 C118.21,100.1 120.87,103.08 124.41,104.21 C129.01,105.68 134.4,104.03 139.59,99.55 C142.41,97.12 144.71,92.26 145.91,89.33 C152.89,106.43 168.74,106.11 186.13,103.32 C188.85,103.35 191.72,102.68 194.49,101.23 C196.67,100.09 198.6,98.57 200.22,96.8 C200.35,98.27 200.48,99.67 200.59,100.99 C187.57,106.98 173.48,114.67 168.71,124.67 C164.02,134.5 160.33,166.45 179.46,183.59 C182.58,186.38 188.29,188.73 193.18,188.73 C194.23,188.73 195.24,188.62 196.18,188.39 C210.18,184.88 210.33,166.64 210.04,161.13 C209.45,149.9 209.06,141.7 208.75,135.1 C208.14,122.27 207.82,115.57 206.92,104.72 C208.66,103.95 210.36,103.2 211.98,102.49 C214.46,101.41 216.8,100.38 218.9,99.41 C220.41,98.72 221.07,96.94 220.37,95.43 C219.68,93.92 217.9,93.26 216.39,93.96 L216.4,93.95 Z M134.13,95.58 C131.37,98.19 128.42,99.36 126.23,98.69 C124.3,98.1 122.88,96.03 122.14,92.7 C121.39,89.37 123.07,79.66 127.93,74.44 C129.95,72.27 132.25,71.17 134.75,71.17 C135.2,71.17 135.67,71.21 136.14,71.28 C138.42,71.63 141.01,74.53 142.2,76.4 C144.11,79.4 140.4,89.62 134.13,95.58 L134.13,95.58 Z M193.35,94.86 C190.97,96.56 187.93,97.7 184.96,97.4 C180.21,96.91 178.3,92.42 178.16,88.17 C177.97,82.66 181.02,76.58 186.39,74.58 C191.01,72.86 196.28,74.11 199.62,77.53 C199.24,78.13 199.05,78.88 199.19,79.75 C199.36,80.83 199.5,81.91 199.65,83 C199.72,87.67 197.27,92.07 193.35,94.87 L193.35,94.86 Z M194.71,182.56 C191.58,183.34 185.9,181.32 183.44,179.12 C166.89,164.3 170.09,135.65 174.1,127.26 C177.84,119.43 189.59,112.77 201.1,107.36 C201.86,116.92 202.17,123.5 202.74,135.38 C203.05,141.98 203.45,150.2 204.03,161.44 C204.26,165.79 204.26,180.17 194.7,182.57 L194.71,182.56 Z" id="Shape"></path>
                </g>
                <text id="SIGNATURE" font-family="NunitoSans-12ptExtraLight_Regular, Nunito Sans" font-size="40" font-weight="normal" fill-opacity="0.735677083" fill="#ECBA64">
                    <tspan x="256" y="170">SIGNATURE</tspan>
                </text>
            </g>
        </g>
        <path d="M252.5,138.5 L488.5,138.5" id="Line" stroke="#ECBA64" stroke-linecap="square"></path>
    </g>
</svg>